<svg width="328" height="190" viewBox="0 0 328 190" fill="none" xmlns="http://www.w3.org/2000/svg">
<path d="M52.303 1.25527V19.6659H23.2225V29.9173H44.1438V47.3865H23.2225V75.3164H0V1.25527H52.303Z" fill="white"/>
<path d="M83.3915 57.7425H105.777V75.3164H60.1689V1.25527H83.3915V57.7425Z" fill="white"/>
<path d="M222.967 76.0486C214.11 76.0486 206.788 73.9913 201 69.8768C195.281 65.6926 192.178 59.5906 191.69 51.5708H216.377C216.725 55.8248 218.608 57.9517 222.026 57.9517C223.281 57.9517 224.327 57.6728 225.164 57.1149C226.07 56.4873 226.524 55.5458 226.524 54.2905C226.524 52.5471 225.582 51.1524 223.699 50.1063C221.816 48.9905 218.887 47.7352 214.912 46.3405C210.17 44.6668 206.23 43.028 203.092 41.424C200.023 39.82 197.373 37.4838 195.142 34.4154C192.91 31.3469 191.829 27.4068 191.899 22.5949C191.899 17.783 193.119 13.7034 195.56 10.356C198.071 6.93887 201.453 4.35859 205.707 2.61515C210.031 0.871716 214.877 0 220.247 0C229.313 0 236.496 2.09212 241.796 6.27637C247.166 10.4606 249.99 16.3534 250.269 23.9548H225.268C225.199 21.8627 224.676 20.3633 223.699 19.4567C222.723 18.5501 221.537 18.0968 220.143 18.0968C219.166 18.0968 218.364 18.4455 217.737 19.1429C217.109 19.7705 216.795 20.6771 216.795 21.8627C216.795 23.5364 217.702 24.9311 219.515 26.0469C221.398 27.093 224.362 28.3831 228.407 29.9173C233.079 31.6608 236.914 33.3345 239.913 34.9384C242.982 36.5424 245.632 38.774 247.863 41.6332C250.095 44.4924 251.211 48.0839 251.211 52.4076C251.211 56.9406 250.095 61.0202 247.863 64.6465C245.632 68.2031 242.389 70.9926 238.135 73.015C233.881 75.0374 228.825 76.0486 222.967 76.0486Z" fill="white"/>
<path d="M327.887 1.25527V75.3164H304.664V46.4451H282.592V75.3164H259.37V1.25527H282.592V27.9298H304.664V1.25527H327.887Z" fill="white"/>
<path d="M93.4451 85.214V162.573H69.1779V124.003L57.2091 162.573H36.3459L24.377 124.003V162.573H0V85.214H29.8673L46.9971 131.651L63.6876 85.214H93.4451Z" fill="white"/>
<path d="M116.523 163.447C112.277 163.447 108.873 162.318 106.311 160.06C103.749 157.802 102.468 154.961 102.468 151.537C102.468 148.041 103.749 145.164 106.311 142.905C108.873 140.574 112.277 139.409 116.523 139.409C120.696 139.409 124.063 140.574 126.625 142.905C129.188 145.164 130.469 148.041 130.469 151.537C130.469 154.961 129.188 157.802 126.625 160.06C124.063 162.318 120.696 163.447 116.523 163.447Z" fill="white"/>
<path d="M177.393 163.338C170.072 163.338 163.338 161.626 157.188 158.202C151.113 154.779 146.281 150.044 142.694 143.998C139.107 137.952 137.314 131.141 137.314 123.566C137.314 115.99 139.107 109.179 142.694 103.133C146.281 97.0874 151.113 92.389 157.188 89.0382C163.338 85.6146 170.072 83.9028 177.393 83.9028C184.713 83.9028 191.411 85.6146 197.487 89.0382C203.563 92.389 208.358 97.0874 211.872 103.133C215.459 109.179 217.253 115.99 217.253 123.566C217.253 131.141 215.459 137.952 211.872 143.998C208.358 150.044 203.527 154.779 197.378 158.202C191.302 161.626 184.64 163.338 177.393 163.338ZM177.393 140.72C182.224 140.72 185.958 139.19 188.593 136.131C191.228 132.999 192.546 128.81 192.546 123.566C192.546 118.248 191.228 114.06 188.593 111C185.958 107.868 182.224 106.302 177.393 106.302C172.488 106.302 168.718 107.868 166.083 111C163.447 114.06 162.13 118.248 162.13 123.566C162.13 128.81 163.447 132.999 166.083 136.131C168.718 139.19 172.488 140.72 177.393 140.72Z" fill="white"/>
<path d="M238.125 163.447C233.879 163.447 230.475 162.318 227.913 160.06C225.351 157.802 224.07 154.961 224.07 151.537C224.07 148.041 225.351 145.164 227.913 142.905C230.475 140.574 233.879 139.409 238.125 139.409C242.298 139.409 245.665 140.574 248.227 142.905C250.789 145.164 252.071 148.041 252.071 151.537C252.071 154.961 250.789 157.802 248.227 160.06C245.665 162.318 242.298 163.447 238.125 163.447Z" fill="white"/>
<path d="M313.16 122.91C317.845 124.003 321.468 126.261 324.03 129.684C326.666 133.035 327.984 136.932 327.984 141.376C327.984 148.15 325.714 153.395 321.176 157.11C316.71 160.752 310.268 162.573 301.85 162.573H261.112V85.214H300.752C308.658 85.214 314.88 86.9258 319.419 90.3494C323.957 93.773 326.227 98.7627 326.227 105.319C326.227 109.835 325.019 113.659 322.603 116.791C320.26 119.851 317.113 121.89 313.16 122.91ZM285.489 115.371H294.932C297.128 115.371 298.738 114.934 299.763 114.06C300.861 113.186 301.41 111.838 301.41 110.017C301.41 108.123 300.861 106.739 299.763 105.865C298.738 104.918 297.128 104.444 294.932 104.444H285.489V115.371ZM296.579 143.124C298.775 143.124 300.386 142.723 301.41 141.922C302.508 141.048 303.058 139.664 303.058 137.77C303.058 134.055 300.898 132.198 296.579 132.198H285.489V143.124H296.579Z" fill="white"/>
<path fill-rule="evenodd" clip-rule="evenodd" d="M149.164 75.1855H160.757L149.25 59.1042L148.798 58.4724L149.299 57.8782L152.029 54.6358L153.559 55.9241L151.329 58.5722L163.216 75.1855H165.099H189.469L182.601 56.2476H179.161H178.626L178.329 55.8024L168.109 40.4762H163.213H162.796L162.503 40.1807L152.797 30.4042L131.78 50.6719L131.489 50.9521H131.086H121.15C119.978 51.5314 118.56 52.2301 117.052 52.9702L115.812 56.3749L123.922 52.6009L124.766 54.4142L114.845 59.0308L113.338 63.1723L145.885 47.8903L146.735 49.7007L112.367 65.8373L110.797 70.1522L151.175 51.2229L152.024 53.0338L111.083 72.2266L110.497 70.9755L108.964 75.1855H117.623L116.991 74.0271C117.791 73.5908 122.903 71.3171 128.871 68.691C134.879 66.048 141.843 63.0099 146.422 61.0186L147.189 60.6852L147.653 61.381L151.407 67.0124L149.743 68.1218L146.453 63.1863C141.888 65.1722 135.354 68.0238 129.677 70.5217C125.125 72.5245 121.173 74.2786 119.2 75.1855H133.23H136.875H149.164ZM118.04 50.256L135.938 1.0896H162.599L181.876 54.2476H179.696L169.476 38.9214L169.179 38.4762H168.644H163.629L153.522 28.2956L152.827 27.5962L152.118 28.2804L130.682 48.9521H120.916H120.682L120.473 49.0557C119.751 49.4127 118.927 49.8194 118.04 50.256ZM179.696 60.4643L183.792 69.6793L185.62 68.8671L181.524 59.652L179.696 60.4643ZM161.33 43.5294L162.632 41.4406L164.329 42.4983L163.57 43.7165L169.193 47.0257L169.453 47.1787L169.585 47.4499L180.826 70.5421L179.027 71.4174L167.919 48.5964L161.672 44.9201L160.788 44.3999L161.33 43.5294ZM156.09 38.3484L154.716 44.8031L154.575 45.4636L155.135 45.8408L162.909 51.0763L172.183 72.4026L174.017 71.605L164.627 50.0111L164.511 49.7434L164.269 49.5804L156.813 44.5591L158.046 38.7648L156.09 38.3484ZM148.239 47.1934L151.463 34.2199L153.404 34.7023L150.355 46.9731L158.148 51.8691L158.372 52.0097L158.497 52.2425L168.862 71.5305L167.1 72.4772L156.86 53.422L148.677 48.2814L148.064 47.8962L148.239 47.1934ZM140.817 47.2829L147.643 43.5286L146.68 41.7762L139.854 45.5304L140.817 47.2829ZM146.197 69.1659L134.081 74.456L133.281 72.6231L145.397 67.333L146.197 69.1659ZM146.837 74.9008L154.516 70.1226L153.46 68.4245L145.78 73.2027L146.837 74.9008Z" fill="white"/>
<path d="M14.5368 172.121C15.8444 172.121 16.9195 172.549 17.7622 173.407C18.6048 174.264 19.0261 175.557 19.0261 177.286V184.15H18.6121V177.242C18.6121 175.702 18.2489 174.532 17.5224 173.733C16.796 172.92 15.8008 172.513 14.5368 172.513C13.2147 172.513 12.1468 172.985 11.3332 173.93C10.5196 174.859 10.1128 176.218 10.1128 178.005V184.15H9.69877V177.242C9.69877 175.702 9.33556 174.532 8.60913 173.733C7.8827 172.92 6.88749 172.513 5.6235 172.513C4.28686 172.513 3.21174 172.985 2.39814 173.93C1.59907 174.859 1.19953 176.218 1.19953 178.005V184.15H0.763672V172.382H1.19953V175.499C1.4901 174.365 2.02766 173.523 2.81221 172.971C3.61128 172.404 4.54838 172.121 5.6235 172.121C6.72767 172.121 7.67203 172.433 8.45658 173.058C9.25565 173.668 9.76415 174.598 9.98208 175.847C10.2436 174.598 10.7812 173.668 11.5948 173.058C12.4229 172.433 13.4036 172.121 14.5368 172.121Z" fill="white"/>
<path d="M40.6868 184.303C39.5971 184.303 38.6165 184.063 37.7447 183.584C36.873 183.09 36.1829 182.392 35.6744 181.492C35.1804 180.576 34.9334 179.501 34.9334 178.266C34.9334 177.031 35.1804 175.964 35.6744 175.063C36.1829 174.147 36.873 173.45 37.7447 172.971C38.6165 172.477 39.5971 172.23 40.6868 172.23C41.7764 172.23 42.7571 172.477 43.6288 172.971C44.5005 173.45 45.1834 174.147 45.6774 175.063C46.1713 175.964 46.4183 177.031 46.4183 178.266C46.4183 179.501 46.1713 180.576 45.6774 181.492C45.1834 182.392 44.5005 183.09 43.6288 183.584C42.7571 184.063 41.7764 184.303 40.6868 184.303ZM40.6868 183.911C41.6311 183.911 42.5029 183.707 43.3019 183.3C44.101 182.879 44.7475 182.247 45.2415 181.405C45.7355 180.562 45.9825 179.516 45.9825 178.266C45.9825 177.017 45.7355 175.971 45.2415 175.128C44.7475 174.285 44.101 173.661 43.3019 173.254C42.5029 172.833 41.6311 172.622 40.6868 172.622C39.7424 172.622 38.8634 172.833 38.0498 173.254C37.2508 173.661 36.6042 174.293 36.1103 175.15C35.6163 175.993 35.3693 177.031 35.3693 178.266C35.3693 179.501 35.6163 180.547 36.1103 181.405C36.6042 182.247 37.2508 182.879 38.0498 183.3C38.8634 183.707 39.7424 183.911 40.6868 183.911Z" fill="white"/>
<path d="M62.882 175.237C63.3469 173.16 64.8942 172.121 67.5239 172.121V172.6H67.3278C66.0928 172.6 65.0395 172.963 64.1678 173.69C63.3106 174.402 62.882 175.557 62.882 177.155V184.15H62.4462V172.382H62.882V175.237Z" fill="white"/>
<path d="M83.6047 172.818V181.056C83.6047 181.768 83.6846 182.313 83.8444 182.69C84.0043 183.068 84.2585 183.337 84.6072 183.497C84.9559 183.642 85.4426 183.715 86.0673 183.715H87.3095V184.15H86.0237C85.0067 184.15 84.273 183.918 83.8227 183.453C83.3868 182.988 83.1689 182.189 83.1689 181.056V172.818H81.2511V172.382H83.1689V169.375H83.6047V172.382H87.3095V172.818H83.6047Z" fill="white"/>
<path d="M108.01 183.911C109.333 183.911 110.444 183.577 111.345 182.908C112.245 182.24 112.79 181.325 112.979 180.162H113.415C113.212 181.397 112.631 182.4 111.672 183.17C110.727 183.925 109.507 184.303 108.01 184.303C106.921 184.303 105.947 184.063 105.09 183.584C104.233 183.104 103.557 182.407 103.063 181.492C102.584 180.576 102.344 179.501 102.344 178.266C102.344 177.031 102.584 175.956 103.063 175.041C103.557 174.126 104.233 173.428 105.09 172.949C105.947 172.469 106.921 172.23 108.01 172.23C109.158 172.23 110.139 172.477 110.952 172.971C111.766 173.45 112.376 174.075 112.783 174.845C113.204 175.615 113.415 176.428 113.415 177.286C113.415 177.809 113.408 178.201 113.393 178.462H102.78C102.795 179.668 103.042 180.678 103.521 181.492C104.015 182.305 104.654 182.915 105.439 183.322C106.223 183.715 107.081 183.911 108.01 183.911ZM108.01 172.622C107.081 172.622 106.223 172.825 105.439 173.232C104.654 173.624 104.015 174.227 103.521 175.041C103.042 175.855 102.795 176.864 102.78 178.07H113.023C113.095 176.864 112.899 175.855 112.434 175.041C111.984 174.227 111.359 173.624 110.56 173.232C109.776 172.825 108.926 172.622 108.01 172.622Z" fill="white"/>
<path d="M153.818 184.303C152.729 184.303 151.748 184.063 150.876 183.584C150.005 183.09 149.315 182.392 148.806 181.492C148.312 180.576 148.065 179.501 148.065 178.266C148.065 177.031 148.312 175.964 148.806 175.063C149.315 174.147 150.005 173.45 150.876 172.971C151.748 172.477 152.729 172.23 153.818 172.23C154.908 172.23 155.889 172.477 156.761 172.971C157.632 173.45 158.315 174.147 158.809 175.063C159.303 175.964 159.55 177.031 159.55 178.266C159.55 179.501 159.303 180.576 158.809 181.492C158.315 182.392 157.632 183.09 156.761 183.584C155.889 184.063 154.908 184.303 153.818 184.303ZM153.818 183.911C154.763 183.911 155.635 183.707 156.434 183.3C157.233 182.879 157.879 182.247 158.373 181.405C158.867 180.562 159.114 179.516 159.114 178.266C159.114 177.017 158.867 175.971 158.373 175.128C157.879 174.285 157.233 173.661 156.434 173.254C155.635 172.833 154.763 172.622 153.818 172.622C152.874 172.622 151.995 172.833 151.182 173.254C150.382 173.661 149.736 174.293 149.242 175.15C148.748 175.993 148.501 177.031 148.501 178.266C148.501 179.501 148.748 180.547 149.242 181.405C149.736 182.247 150.382 182.879 151.182 183.3C151.995 183.707 152.874 183.911 153.818 183.911Z" fill="white"/>
<path d="M200.815 176.174C201.73 176.349 202.493 176.799 203.103 177.525C203.713 178.237 204.018 179.08 204.018 180.053C204.018 181.259 203.604 182.247 202.776 183.017C201.948 183.773 200.742 184.15 199.159 184.15H194.756V168.808H199.159C200.684 168.808 201.817 169.157 202.558 169.854C203.299 170.537 203.67 171.438 203.67 172.557C203.67 173.574 203.394 174.387 202.842 174.997C202.304 175.608 201.628 176 200.815 176.174ZM195.192 175.956H199.289C200.568 175.956 201.541 175.658 202.21 175.063C202.892 174.453 203.234 173.617 203.234 172.557C203.234 171.54 202.9 170.733 202.231 170.138C201.563 169.542 200.539 169.244 199.159 169.244H195.192V175.956ZM199.159 183.715C200.553 183.715 201.636 183.388 202.406 182.734C203.19 182.08 203.583 181.187 203.583 180.053C203.583 178.935 203.183 178.048 202.384 177.395C201.585 176.726 200.495 176.392 199.115 176.392H195.192V183.715H199.159Z" fill="white"/>
<path d="M224.93 183.911C226.252 183.911 227.364 183.577 228.265 182.908C229.165 182.24 229.71 181.325 229.899 180.162H230.335C230.132 181.397 229.55 182.4 228.592 183.17C227.647 183.925 226.427 184.303 224.93 184.303C223.841 184.303 222.867 184.063 222.01 183.584C221.153 183.104 220.477 182.407 219.983 181.492C219.504 180.576 219.264 179.501 219.264 178.266C219.264 177.031 219.504 175.956 219.983 175.041C220.477 174.126 221.153 173.428 222.01 172.949C222.867 172.469 223.841 172.23 224.93 172.23C226.078 172.23 227.059 172.477 227.872 172.971C228.686 173.45 229.296 174.075 229.703 174.845C230.124 175.615 230.335 176.428 230.335 177.286C230.335 177.809 230.328 178.201 230.313 178.462H219.7C219.715 179.668 219.962 180.678 220.441 181.492C220.935 182.305 221.574 182.915 222.359 183.322C223.143 183.715 224 183.911 224.93 183.911ZM224.93 172.622C224 172.622 223.143 172.825 222.359 173.232C221.574 173.624 220.935 174.227 220.441 175.041C219.962 175.855 219.715 176.864 219.7 178.07H229.943C230.015 176.864 229.819 175.855 229.354 175.041C228.904 174.227 228.279 173.624 227.48 173.232C226.696 172.825 225.846 172.622 224.93 172.622Z" fill="white"/>
<path d="M246.569 169.375C246.409 169.375 246.271 169.324 246.155 169.222C246.053 169.106 246.003 168.961 246.003 168.786C246.003 168.612 246.053 168.474 246.155 168.372C246.271 168.256 246.409 168.198 246.569 168.198C246.729 168.198 246.86 168.256 246.961 168.372C247.078 168.474 247.136 168.612 247.136 168.786C247.136 168.961 247.078 169.106 246.961 169.222C246.86 169.324 246.729 169.375 246.569 169.375ZM246.787 172.382V184.15H246.351V172.382H246.787Z" fill="white"/>
<path d="M268.546 172.23C269.897 172.23 271.037 172.578 271.967 173.276C272.912 173.973 273.544 174.859 273.863 175.934V172.382H274.277V184.586C274.277 185.676 274.038 186.62 273.558 187.419C273.079 188.233 272.439 188.85 271.64 189.272C270.856 189.693 269.999 189.904 269.069 189.904C267.645 189.904 266.461 189.555 265.517 188.858C264.587 188.175 263.947 187.245 263.599 186.068H264.035C264.369 187.129 264.957 187.964 265.8 188.574C266.657 189.199 267.747 189.511 269.069 189.511C269.97 189.511 270.783 189.308 271.51 188.901C272.236 188.494 272.81 187.921 273.231 187.18C273.653 186.439 273.863 185.574 273.863 184.586V180.576C273.544 181.666 272.912 182.56 271.967 183.257C271.037 183.954 269.897 184.303 268.546 184.303C267.427 184.303 266.432 184.063 265.56 183.584C264.688 183.09 264.013 182.392 263.533 181.492C263.054 180.576 262.814 179.501 262.814 178.266C262.814 177.031 263.054 175.964 263.533 175.063C264.013 174.147 264.688 173.45 265.56 172.971C266.432 172.477 267.427 172.23 268.546 172.23ZM273.863 178.266C273.863 177.148 273.631 176.167 273.166 175.324C272.716 174.467 272.084 173.806 271.27 173.341C270.471 172.862 269.563 172.622 268.546 172.622C267.471 172.622 266.534 172.847 265.735 173.298C264.95 173.748 264.34 174.402 263.904 175.259C263.468 176.102 263.25 177.104 263.25 178.266C263.25 179.429 263.468 180.438 263.904 181.296C264.34 182.138 264.95 182.785 265.735 183.235C266.534 183.686 267.471 183.911 268.546 183.911C269.563 183.911 270.471 183.678 271.27 183.213C272.084 182.734 272.716 182.073 273.166 181.23C273.631 180.373 273.863 179.385 273.863 178.266Z" fill="white"/>
<path d="M300.514 172.382V184.15H300.078V180.947C299.816 182.066 299.264 182.915 298.422 183.497C297.594 184.078 296.606 184.368 295.458 184.368C294.078 184.368 292.944 183.94 292.058 183.083C291.172 182.225 290.729 180.932 290.729 179.203V172.382H291.143V179.247C291.143 180.787 291.528 181.964 292.298 182.777C293.068 183.577 294.121 183.976 295.458 183.976C296.853 183.976 297.971 183.526 298.814 182.625C299.657 181.71 300.078 180.366 300.078 178.593V172.382H300.514Z" fill="white"/>
<path d="M316.537 178.266C316.537 177.031 316.777 175.964 317.256 175.063C317.736 174.147 318.411 173.45 319.283 172.971C320.155 172.477 321.15 172.23 322.269 172.23C323.62 172.23 324.76 172.586 325.69 173.298C326.635 173.995 327.267 174.888 327.586 175.978V172.382H328V184.15H327.586V180.555C327.267 181.644 326.635 182.545 325.69 183.257C324.76 183.954 323.62 184.303 322.269 184.303C321.15 184.303 320.155 184.063 319.283 183.584C318.411 183.09 317.736 182.392 317.256 181.492C316.777 180.576 316.537 179.501 316.537 178.266ZM327.586 178.266C327.586 177.148 327.354 176.167 326.889 175.324C326.438 174.467 325.806 173.806 324.993 173.341C324.194 172.862 323.286 172.622 322.269 172.622C321.194 172.622 320.257 172.847 319.457 173.298C318.673 173.748 318.063 174.402 317.627 175.259C317.191 176.102 316.973 177.104 316.973 178.266C316.973 179.429 317.191 180.438 317.627 181.296C318.063 182.138 318.673 182.785 319.457 183.235C320.257 183.686 321.194 183.911 322.269 183.911C323.286 183.911 324.194 183.678 324.993 183.213C325.806 182.734 326.438 182.073 326.889 181.23C327.354 180.373 327.586 179.385 327.586 178.266Z" fill="white"/>
</svg>
