<svg width="81" height="75" viewBox="0 0 81 75" fill="none" xmlns="http://www.w3.org/2000/svg">
<path fill-rule="evenodd" clip-rule="evenodd" d="M40.2001 74.0959H51.7923L40.2858 58.0146L39.8338 57.3828L40.3342 56.7886L43.0646 53.5462L44.5944 54.8345L42.3644 57.4826L54.2515 74.0959H56.1343H80.5042L73.6368 55.158H70.1964H69.6612L69.3644 54.7128L59.1449 39.3866H54.2485H53.8321L53.5388 39.0911L43.8324 29.3146L22.8156 49.5823L22.5251 49.8625H22.1215H12.1855C11.0134 50.4418 9.5952 51.1405 8.08718 51.8806L6.84774 55.2853L14.9581 51.5113L15.8018 53.3246L5.88092 57.9412L4.37327 62.0827L36.9204 46.8007L37.7705 48.6111L3.40311 64.7477L1.83232 69.0626L42.2111 50.1333L43.06 51.9442L2.11911 71.137L1.5326 69.8859L0 74.0959H8.65817L8.02629 72.9375C8.82626 72.5012 13.9383 70.2275 19.9071 67.6014C25.9143 64.9584 32.8782 61.9203 37.458 59.929L38.2249 59.5956L38.6888 60.2914L42.4431 65.9228L40.779 67.0322L37.4886 62.0967C32.9236 64.0826 26.3899 66.9342 20.7125 69.4321C16.1604 71.4349 12.2084 73.189 10.236 74.0959H24.2658H27.9109H40.2001ZM9.07524 49.1664L26.9736 0H53.6348L72.9115 53.158H70.7315L60.512 37.8318L60.2151 37.3866H59.68H54.6648L44.5573 27.206L43.8629 26.5066L43.1535 27.1908L21.7178 47.8625H11.9518H11.7181L11.5086 47.9661C10.7865 48.3231 9.96218 48.7298 9.07524 49.1664ZM70.732 59.3747L74.8275 68.5897L76.6552 67.7775L72.5596 58.5624L70.732 59.3747ZM52.3658 42.4398L53.6673 40.351L55.3647 41.4087L54.6056 42.6269L60.2291 45.9361L60.4891 46.0891L60.6211 46.3603L71.8612 69.4525L70.0629 70.3279L58.9548 47.5068L52.7074 43.8305L51.8234 43.3103L52.3658 42.4398ZM47.1256 37.2588L45.7515 43.7135L45.6109 44.374L46.171 44.7512L53.9449 49.9867L63.2187 71.313L65.0528 70.5154L55.6626 48.9215L55.5462 48.6538L55.3042 48.4908L47.8482 43.4695L49.0818 37.6752L47.1256 37.2588ZM39.2746 46.1038L42.4991 33.1303L44.4401 33.6127L41.3902 45.8835L49.1839 50.7795L49.4077 50.9201L49.5328 51.1529L59.8974 70.4409L58.1356 71.3876L47.8961 52.3324L39.7131 47.1918L39.0999 46.8066L39.2746 46.1038ZM31.8531 46.1933L38.679 42.439L37.7152 40.6866L30.8892 44.4408L31.8531 46.1933ZM37.2328 68.0763L25.1167 73.3664L24.3164 71.5335L36.4325 66.2434L37.2328 68.0763ZM37.8726 73.8112L45.5518 69.033L44.4952 67.3349L36.816 72.1131L37.8726 73.8112Z" fill="white"/>
</svg>
